<?xml version="1.0" encoding="utf-8" ?>
<svg xmlns="http://www.w3.org/2000/svg" xmlns:xlink="http://www.w3.org/1999/xlink" width="1672" height="521">
	<rect fill="white" width="1672" height="521"/>
	<ellipse fill="#FF7675" transform="matrix(2 0 0 2 88 90.5664)" cx="50" cy="50" rx="50" ry="50"/>
	<ellipse fill="none" stroke="#D63031" stroke-width="8" stroke-miterlimit="4" transform="matrix(2 0 0 2 88 90.5664)" cx="50" cy="50" rx="50" ry="50"/>
	<ellipse fill="#74B9FF" transform="matrix(2 0 0 2 1384 90.5664)" cx="50" cy="50" rx="50" ry="50"/>
	<ellipse fill="none" stroke="#0984E3" stroke-width="8" stroke-miterlimit="4" transform="matrix(2 0 0 2 1384 90.5664)" cx="50" cy="50" rx="50" ry="50"/>
	<path fill="none" stroke="black" stroke-width="3" stroke-miterlimit="4" transform="matrix(2 0 0 2 88 90.5664)" d="M606.68 40L624 50L606.68 60M624 50L124 50"/>
	<path transform="matrix(9.96236 0 0 9.96236 625.091 125.754)" d="M3.65629 -3.98506L4.51308 -3.98506C4.71233 -3.98506 4.81195 -3.98506 4.81195 -4.18431C4.81195 -4.2939 4.71233 -4.2939 4.54296 -4.2939L3.71606 -4.2939L3.92528 -5.42964C3.96513 -5.63885 4.10461 -6.3462 4.16438 -6.46575C4.25405 -6.65504 4.42341 -6.80448 4.63263 -6.80448C4.67248 -6.80448 4.93151 -6.80448 5.1208 -6.62516C4.68244 -6.58531 4.58281 -6.23661 4.58281 -6.08717C4.58281 -5.85803 4.76214 -5.73848 4.95143 -5.73848C5.21046 -5.73848 5.49938 -5.95766 5.49938 -6.33624C5.49938 -6.79452 5.0411 -7.02366 4.63263 -7.02366C4.2939 -7.02366 3.66625 -6.84433 3.36737 -5.85803C3.3076 -5.64882 3.27771 -5.54919 3.0386 -4.2939L2.35118 -4.2939C2.16189 -4.2939 2.0523 -4.2939 2.0523 -4.10461C2.0523 -3.98506 2.14197 -3.98506 2.33126 -3.98506L2.98879 -3.98506L2.24159 -0.049813C2.06227 0.916563 1.8929 1.82316 1.37484 1.82316C1.33499 1.82316 1.08593 1.82316 0.896638 1.64384C1.35492 1.61395 1.44458 1.25529 1.44458 1.10585C1.44458 0.876712 1.26525 0.757161 1.07597 0.757161C0.816936 0.757161 0.52802 0.976339 0.52802 1.35492C0.52802 1.80324 0.966376 2.04234 1.37484 2.04234C1.92279 2.04234 2.3213 1.45455 2.50062 1.07597C2.81943 0.448319 3.04857 -0.757161 3.05853 -0.826899L3.65629 -3.98506Z"/>
	<path transform="matrix(9.96236 0 0 9.96236 684.366 125.754)" d="M3.29763 2.39103C3.29763 2.36115 3.29763 2.34122 3.12827 2.17186C1.88294 0.916563 1.56413 -0.966376 1.56413 -2.49066C1.56413 -4.22416 1.94272 -5.95766 3.16812 -7.20299C3.29763 -7.32254 3.29763 -7.34247 3.29763 -7.37235C3.29763 -7.44209 3.25778 -7.47198 3.19801 -7.47198C3.09838 -7.47198 2.20174 -6.79452 1.61395 -5.52926C1.10585 -4.43337 0.986301 -3.32752 0.986301 -2.49066C0.986301 -1.71357 1.09589 -0.508095 1.64384 0.617684C2.24159 1.84309 3.09838 2.49066 3.19801 2.49066C3.25778 2.49066 3.29763 2.46077 3.29763 2.39103Z"/>
	<path transform="matrix(9.96236 0 0 9.96236 722.964 125.754)" d="M3.32752 -3.00872C3.3873 -3.26775 3.61644 -4.18431 4.31382 -4.18431C4.36364 -4.18431 4.60274 -4.18431 4.81195 -4.05479C4.533 -4.00498 4.33375 -3.75591 4.33375 -3.51681C4.33375 -3.35741 4.44334 -3.16812 4.71233 -3.16812C4.93151 -3.16812 5.25031 -3.34745 5.25031 -3.74595C5.25031 -4.26401 4.66252 -4.40349 4.32379 -4.40349C3.74595 -4.40349 3.39726 -3.87547 3.27771 -3.64633C3.02864 -4.30386 2.49066 -4.40349 2.20174 -4.40349C1.16563 -4.40349 0.597758 -3.11831 0.597758 -2.86924C0.597758 -2.76961 0.697385 -2.76961 0.71731 -2.76961C0.797011 -2.76961 0.826899 -2.78954 0.846824 -2.8792C1.18555 -3.93524 1.84309 -4.18431 2.18182 -4.18431C2.37111 -4.18431 2.7198 -4.09465 2.7198 -3.51681C2.7198 -3.20797 2.55044 -2.54047 2.18182 -1.1457C2.02242 -0.52802 1.67372 -0.109589 1.23537 -0.109589C1.17559 -0.109589 0.946451 -0.109589 0.737235 -0.239103C0.986301 -0.288917 1.20548 -0.498132 1.20548 -0.777086C1.20548 -1.04608 0.986301 -1.12578 0.836862 -1.12578C0.537983 -1.12578 0.288917 -0.86675 0.288917 -0.547945C0.288917 -0.089664 0.787049 0.109589 1.2254 0.109589C1.88294 0.109589 2.24159 -0.587796 2.27148 -0.647572C2.39103 -0.278954 2.74969 0.109589 3.34745 0.109589C4.3736 0.109589 4.94147 -1.17559 4.94147 -1.42466C4.94147 -1.52428 4.85181 -1.52428 4.82192 -1.52428C4.73225 -1.52428 4.71233 -1.48443 4.6924 -1.4147C4.36364 -0.348692 3.68618 -0.109589 3.36737 -0.109589C2.97883 -0.109589 2.81943 -0.428394 2.81943 -0.767123C2.81943 -0.986301 2.8792 -1.20548 2.98879 -1.64384L3.32752 -3.00872Z"/>
	<path transform="matrix(9.96236 0 0 9.96236 779.689 125.754)" d="M2.8792 -2.49066C2.8792 -3.26775 2.76961 -4.47323 2.22167 -5.599C1.62391 -6.82441 0.767123 -7.47198 0.667497 -7.47198C0.607721 -7.47198 0.56787 -7.43213 0.56787 -7.37235C0.56787 -7.34247 0.56787 -7.32254 0.757161 -7.14321C1.7335 -6.15691 2.30137 -4.57285 2.30137 -2.49066C2.30137 -0.787049 1.93275 0.966376 0.697385 2.22167C0.56787 2.34122 0.56787 2.36115 0.56787 2.39103C0.56787 2.45081 0.607721 2.49066 0.667497 2.49066C0.767123 2.49066 1.66376 1.8132 2.25156 0.547945C2.75965 -0.547945 2.8792 -1.6538 2.8792 -2.49066Z"/>
	<path transform="matrix(9.96236 0 0 9.96236 845.856 125.754)" d="M6.84433 -3.25778C6.99377 -3.25778 7.18306 -3.25778 7.18306 -3.45704C7.18306 -3.65629 6.99377 -3.65629 6.8543 -3.65629L0.886675 -3.65629C0.747198 -3.65629 0.557908 -3.65629 0.557908 -3.45704C0.557908 -3.25778 0.747198 -3.25778 0.896638 -3.25778L6.84433 -3.25778ZM6.8543 -1.32503C6.99377 -1.32503 7.18306 -1.32503 7.18306 -1.52428C7.18306 -1.72354 6.99377 -1.72354 6.84433 -1.72354L0.896638 -1.72354C0.747198 -1.72354 0.557908 -1.72354 0.557908 -1.52428C0.557908 -1.32503 0.747198 -1.32503 0.886675 -1.32503L6.8543 -1.32503Z"/>
	<path transform="matrix(9.96236 0 0 9.96236 950.621 125.754)" d="M3.32752 -3.00872C3.3873 -3.26775 3.61644 -4.18431 4.31382 -4.18431C4.36364 -4.18431 4.60274 -4.18431 4.81195 -4.05479C4.533 -4.00498 4.33375 -3.75591 4.33375 -3.51681C4.33375 -3.35741 4.44334 -3.16812 4.71233 -3.16812C4.93151 -3.16812 5.25031 -3.34745 5.25031 -3.74595C5.25031 -4.26401 4.66252 -4.40349 4.32379 -4.40349C3.74595 -4.40349 3.39726 -3.87547 3.27771 -3.64633C3.02864 -4.30386 2.49066 -4.40349 2.20174 -4.40349C1.16563 -4.40349 0.597758 -3.11831 0.597758 -2.86924C0.597758 -2.76961 0.697385 -2.76961 0.71731 -2.76961C0.797011 -2.76961 0.826899 -2.78954 0.846824 -2.8792C1.18555 -3.93524 1.84309 -4.18431 2.18182 -4.18431C2.37111 -4.18431 2.7198 -4.09465 2.7198 -3.51681C2.7198 -3.20797 2.55044 -2.54047 2.18182 -1.1457C2.02242 -0.52802 1.67372 -0.109589 1.23537 -0.109589C1.17559 -0.109589 0.946451 -0.109589 0.737235 -0.239103C0.986301 -0.288917 1.20548 -0.498132 1.20548 -0.777086C1.20548 -1.04608 0.986301 -1.12578 0.836862 -1.12578C0.537983 -1.12578 0.288917 -0.86675 0.288917 -0.547945C0.288917 -0.089664 0.787049 0.109589 1.2254 0.109589C1.88294 0.109589 2.24159 -0.587796 2.27148 -0.647572C2.39103 -0.278954 2.74969 0.109589 3.34745 0.109589C4.3736 0.109589 4.94147 -1.17559 4.94147 -1.42466C4.94147 -1.52428 4.85181 -1.52428 4.82192 -1.52428C4.73225 -1.52428 4.71233 -1.48443 4.6924 -1.4147C4.36364 -0.348692 3.68618 -0.109589 3.36737 -0.109589C2.97883 -0.109589 2.81943 -0.428394 2.81943 -0.767123C2.81943 -0.986301 2.8792 -1.20548 2.98879 -1.64384L3.32752 -3.00872Z"/>
	<path transform="matrix(9.96236 0 0 9.96236 1007.35 84.7734)" d="M3.52179 -1.26924L3.28468 -1.26924C3.26376 -1.11582 3.19402 -0.704359 3.10336 -0.63462C3.04757 -0.592777 2.51059 -0.592777 2.41295 -0.592777L1.12976 -0.592777C1.86202 -1.24135 2.1061 -1.43661 2.52453 -1.76438C3.0406 -2.17584 3.52179 -2.60822 3.52179 -3.27074C3.52179 -4.11457 2.78257 -4.63063 1.88991 -4.63063C1.02516 -4.63063 0.439352 -4.02391 0.439352 -3.38232C0.439352 -3.02665 0.739228 -2.99178 0.808966 -2.99178C0.976339 -2.99178 1.17858 -3.11034 1.17858 -3.36139C1.17858 -3.48692 1.12976 -3.73101 0.767123 -3.73101C0.983313 -4.22615 1.45753 -4.37958 1.78531 -4.37958C2.48269 -4.37958 2.84533 -3.83562 2.84533 -3.27074C2.84533 -2.66401 2.41295 -2.18281 2.18979 -1.93176L0.509091 -0.27198C0.439352 -0.209215 0.439352 -0.195268 0.439352 0L3.31258 0L3.52179 -1.26924Z"/>
	<text transform="matrix(2 0 0 2 63.3203 358.566)" font-size="28" font-family="Arial" x="0, 17.103516, 32.675781, 38.896484, 52.896484, 60.675781, 66.896484, 80.896484, 88.675781, 102.67578, 118.24805, 141.57227, 157.14453, 164.92383, 174.24805, 189.82031, 205.39258, 211.61328, 217.83398, 231.83398, 239.61328, 245.83398, 261.40625, 276.97852, 292.55078, 300.33008, 308.10938, 323.68164, 337.68164, 345.46094, 353.24023, 361.01953, 376.5918, 392.16406, 407.73633, 415.51562, 421.73633, 429.51562, 434.86133, 448.86133, 456.64062, 472.21289, 487.78516, 494.00586, 509.57812, 525.15039, 532.92969, 540.70898, 556.28125, 564.06055, 584.28125, 593.60547, 609.17773, 624.75, 632.5293, 648.10156, 657.42578, 672.99805, 688.57031, 704.14258, 719.71484, 727.49414, 743.06641, 750.8457, " y="28">
			This is some really long text, and it&apos;s going to wrap around at 
	</text>
	<text transform="matrix(2 0 0 2 63.3203 358.566)" font-size="28" font-family="Arial" x="0, 14, 29.572266, 52.896484, 68.46875, 76.248047, 91.820312, 107.39258, 113.61328, 129.18555, 136.96484, 144.74414, 152.52344, 168.0957, 183.66797, 197.66797, 213.24023, 228.8125, 242.8125, 258.38477, 266.16406, 272.38477, 280.16406, 285.50977, 299.50977, 307.28906, 321.28906, 336.86133, 344.64062, 350.86133, 366.43359, 382.00586, 397.57812, 405.35742, 420.92969, 436.50195, 452.07422, 459.85352, 467.63281, 475.41211, 489.41211, 504.98438, 520.55664, 536.12891, 543.9082, 551.6875, 567.25977, 575.03906, 581.25977, 596.83203, 604.61133, 612.39062, 627.96289, 635.74219, 643.52148, 651.30078, 657.52148, 680.8457, 696.41797, 704.19727, 719.76953, 735.3418, 743.12109, 749.3418, 757.12109, 764.90039, " y="56.977539">
			some point, because it&apos;s so long and I spent a lot of time on it. 
	</text>
</svg>
